#!OML:ASF H:\Terrain\Patient Classification 1\Walking\liu\liu.ASF
:FULLY-SPECIFIED
:DEGREES
291
root 10.066200 16.861900 3.817000 5.939190 1.875430 3.457770
lowerback -61.146202 -37.116398 -47.645302
upperback -0.749413 -46.875900 20.792400
thorax 39.082401 -24.420300 43.712303
lowerneck -217.567993 -40.117203 -117.364998
upperneck 226.618988 -48.076500 116.077003
head 115.844002 -17.528999 55.343700
rclavicle -0.000000 0.000000
rhumerus -470.951996 75.729401 -829.559021
rradius 401.521973
rwrist -227.623993
rhand -294.572998 -230.574005
rfingers 71.250198
rthumb -27.934000 -530.189026
lclavicle -0.000000 0.000000
lhumerus -109.575005 -219.554993 861.680969
lradius 270.790985
lwrist 73.239601
lhand -159.865997 -240.725998
lfingers 71.250198
lthumb 102.131004 56.594803
rfemur -374.714020 3.802040 150.582001
rtibia 418.092010
rfoot -218.188995 -102.833008
rtoes -209.993988
lfemur -34.335499 42.695499 -295.338989
ltibia 182.550995
lfoot -186.625992 43.551796
ltoes -32.933601
292
root 10.065300 16.869400 3.963890 5.835410 2.206800 3.428100
lowerback -60.500698 -37.794998 -47.752197
upperback -1.585130 -47.803501 20.709400
thorax 37.956600 -24.838902 43.651501
lowerneck -215.277008 -40.539898 -115.216995
upperneck 230.718002 -48.720200 111.414001
head 116.845001 -18.288900 53.201199
rclavicle 0.000000 -0.000000
rhumerus -475.570984 73.741005 -830.291992
rradius 398.912994
rwrist -223.479996
rhand -291.089996 -229.381012
rfingers 71.250198
rthumb -24.570000 -529.036987
lclavicle 0.000000 -0.000000
lhumerus -109.849007 -229.015015 863.678955
lradius 276.506989
lwrist 84.145401
lhand -159.464996 -235.382996
lfingers 71.250198
lthumb 102.517998 61.918301
rfemur -375.113983 7.960870 147.722992
rtibia 399.365997
rfoot -213.882996 -92.778099
rtoes -182.115997
lfemur -22.522800 44.578300 -293.451996
ltibia 173.052002
lfoot -186.476990 38.569500
ltoes -30.447800
293
root 10.071500 16.881201 4.102030 5.790050 2.805690 3.464000
lowerback -59.038700 -39.242203 -47.329796
upperback -2.519850 -49.826500 20.547501
thorax 36.343102 -25.780300 43.151798
lowerneck -209.638000 -39.892899 -120.812996
upperneck 226.634003 -48.599300 120.028999
head 114.589996 -17.819199 57.355801
rclavicle 0.000000 0.000000
rhumerus -480.595032 75.813400 -833.104980
rradius 399.192017
rwrist -226.356995
rhand -297.833984 -253.584000
rfingers 71.250198
rthumb -31.082600 -553.154968
lclavicle 0.000000 0.000000
lhumerus -108.965996 -242.437988 865.425049
lradius 281.322998
lwrist 98.355499
lhand -157.580002 -228.496002
lfingers 71.250198
lthumb 104.336006 68.715103
rfemur -376.240997 9.768499 143.438995
rtibia 381.181976
rfoot -210.867004 -93.190300
rtoes -197.285004
lfemur -9.964190 45.765800 -292.410004
ltibia 161.096985
lfoot -183.645004 33.139198
ltoes -35.183899
294
root 10.069100 16.889500 4.232390 6.099280 2.987840 3.279060
lowerback -63.063999 -39.025101 -45.672699
upperback -2.335950 -49.507401 21.340698
thorax 38.685802 -25.650799 42.816299
lowerneck -209.891998 -40.651398 -122.196999
upperneck 224.593994 -49.549698 122.005997
head 114.113998 -18.112600 58.124699
rclavicle -0.000000 0.000000
rhumerus -481.025024 77.705101 -834.574951
rradius 398.789001
rwrist -230.085999
rhand -312.136993 -300.434998
rfingers 71.250198
rthumb -44.895401 -599.758972
lclavicle -0.000000 0.000000
lhumerus -104.691002 -253.351990 866.462036
lradius 286.851013
lwrist 109.134995
lhand -155.716003 -223.675995
lfingers 71.250198
lthumb 106.134003 73.444099
rfemur -383.151001 19.639000 140.339005
rtibia 363.601013
rfoot -214.830002 -97.326698
rtoes -211.653000
lfemur -0.396926 46.285301 -289.354980
ltibia 144.994003
lfoot -178.271011 31.881199
ltoes -33.276703
295
root 10.064100 16.885500 4.374500 6.327410 3.194150 3.456230
lowerback -67.998398 -39.517902 -48.550701
upperback -1.417980 -49.720001 21.106400
thorax 42.668701 -25.910398 43.801697
lowerneck -218.101990 -42.622299 -116.639008
upperneck 229.186005 -51.888500 115.423004
head 117.433006 -19.259201 54.436001
rclavicle 0.000000 0.000000
rhumerus -480.638000 78.231003 -835.150024
rradius 395.789001
rwrist -228.658005
rhand -312.705017 -300.070984
rfingers 71.250198
rthumb -45.443604 -599.384033
lclavicle 0.000000 0.000000
lhumerus -100.708000 -261.945007 866.425049
lradius 293.265991
lwrist 117.389999
lhand -155.237000 -222.248001
lfingers 71.250198
lthumb 106.597000 74.847702
rfemur -388.950012 27.998600 132.764999
rtibia 347.425995
rfoot -217.945007 -95.974197
rtoes -209.776993
lfemur 11.999300 43.920296 -290.169006
ltibia 126.263000
lfoot -173.556000 30.874401
ltoes -14.445800
